<!--?xml version="1.0" standalone="no"?-->
              <svg id="sw-js-blob-svg" viewBox="0 0 100 100" xmlns="http://www.w3.org/2000/svg" version="1.1">
                    <defs> 
                        <linearGradient id="sw-gradient" x1="0" x2="1" y1="1" y2="0">
                            <stop id="stop1" stop-color="rgba(248, 117, 55, 1)" offset="0%"></stop>
                            <stop id="stop2" stop-color="rgba(251, 168, 31, 1)" offset="100%"></stop>
                        </linearGradient>
                    </defs>
                <path fill="url(#sw-gradient)" d="M20.4,-26C27.5,-23,34.9,-18.4,37,-12C39.1,-5.6,36,2.6,32.9,10.3C29.9,18,26.8,25.3,21.3,29.6C15.8,34,7.9,35.3,0.2,35.1C-7.6,34.9,-15.2,33.1,-20.5,28.7C-25.8,24.4,-28.7,17.3,-31.7,9.9C-34.6,2.5,-37.6,-5.3,-36.7,-13.1C-35.8,-20.9,-31.1,-28.6,-24.3,-31.7C-17.6,-34.8,-8.8,-33.2,-1,-31.8C6.7,-30.3,13.4,-29,20.4,-26Z" width="100%" height="100%" transform="translate(50 50)" stroke-width="0" style="transition: 0.3s;" stroke="url(#sw-gradient)"></path>
              </svg>